<?xml version="1.0" standalone="no"?><!DOCTYPE svg PUBLIC "-//W3C//DTD SVG 1.1//EN" "http://www.w3.org/Graphics/SVG/1.1/DTD/svg11.dtd"><svg t="1581925431560" class="icon" viewBox="0 0 1024 1024" version="1.1" xmlns="http://www.w3.org/2000/svg" p-id="2812" xmlns:xlink="http://www.w3.org/1999/xlink" width="200" height="200"><defs><style type="text/css"></style></defs><path d="M808.154 1020.168 97.129 1020.168c-51.323 0-93.077-40.172-93.077-89.55L4.052 90.188c0-23.987 10.136-47.148 27.81-63.545C49.58 10.206 73.689 1.694 98.199 3.172l568.906 0c17.673 0 32 14.327 32 32 0 17.673-14.327 32-32 32L95.93 67.172l-1.196-0.09c-7.375-0.557-14.243 1.748-19.343 6.479-4.732 4.39-7.338 10.295-7.338 16.627l0 840.43c0 14.088 13.044 25.55 29.077 25.55l711.025 0c16.032 0 29.075-11.462 29.075-25.55L837.23 417.081c0-17.673 14.327-32 32-32s32 14.327 32 32l0 513.538C901.229 979.996 859.477 1020.168 808.154 1020.168z" p-id="2813"></path><path d="M193.002 798c-8.271 0-16.534-3.186-22.797-9.542-12.403-12.59-12.251-32.851 0.338-45.254l742-731c12.589-12.402 32.851-12.252 45.254 0.338 12.403 12.59 12.252 32.851-0.338 45.254l-742 731C209.226 794.936 201.11 798 193.002 798z" p-id="2814"></path></svg>