<?xml version="1.0" standalone="no"?><!DOCTYPE svg PUBLIC "-//W3C//DTD SVG 1.1//EN" "http://www.w3.org/Graphics/SVG/1.1/DTD/svg11.dtd"><svg t="1581923621699" class="icon" viewBox="0 0 1024 1024" version="1.1" xmlns="http://www.w3.org/2000/svg" p-id="1134" xmlns:xlink="http://www.w3.org/1999/xlink" width="200" height="200"><defs><style type="text/css"></style></defs><path d="M643.2 152 380.8 152c-33.6 0-60.8 27.2-60.8 60.8l0 600c0 33.6 27.2 60.8 60.8 60.8l264 0c33.6 0 60.8-27.2 60.8-60.8L705.6 212.8C704 179.2 676.8 152 643.2 152M476.8 200l72 0c6.4 0 12.8 4.8 12.8 12.8 0 6.4-4.8 12.8-12.8 12.8l-72 0c-6.4 0-12.8-4.8-12.8-12.8C464 204.8 468.8 200 476.8 200M512 848c-19.2 0-36.8-16-36.8-36.8 0-19.2 16-36.8 36.8-36.8 19.2 0 36.8 16 36.8 36.8C548.8 832 531.2 848 512 848M680 752l-336 0L344 272l336 0L680 752z" p-id="1135"></path></svg>